<svg width="44" height="44" viewBox="0 0 44 44" fill="none" xmlns="http://www.w3.org/2000/svg">
<path d="M35.3783 31.7633H30.2767C30.119 31.7633 29.9678 31.7006 29.8563 31.5891C29.7448 31.4776 29.6821 31.3264 29.6821 31.1687C29.6821 31.011 29.7448 30.8598 29.8563 30.7483C29.9678 30.6368 30.119 30.5741 30.2767 30.5741H35.3783C36.9551 30.5717 38.4726 29.9728 39.626 28.8977C40.7794 27.8225 41.4832 26.3507 41.5961 24.778C41.7091 23.2053 41.2227 21.6481 40.2348 20.4191C39.2468 19.1902 37.8305 18.3807 36.2702 18.153C36.1841 18.1411 36.1017 18.1104 36.0288 18.0631C35.9559 18.0159 35.8942 17.9532 35.8481 17.8795C35.8022 17.8057 35.7732 17.7227 35.7629 17.6364C35.7526 17.5501 35.7614 17.4626 35.7886 17.3801C36.2426 16.039 36.3708 14.6091 36.1626 13.2086C35.9545 11.8081 35.4158 10.4774 34.5914 9.32634C33.7669 8.17531 32.6802 7.23711 31.4212 6.58934C30.1623 5.94156 28.7672 5.60282 27.3513 5.60113C25.5531 5.58762 23.7934 6.12201 22.3064 7.13319C20.8193 8.14437 19.6755 9.5844 19.027 11.2617C18.9973 11.3377 18.9523 11.4068 18.8947 11.4647C18.8372 11.5226 18.7684 11.568 18.6925 11.5981C18.6166 11.6282 18.5354 11.6424 18.4538 11.6398C18.3722 11.6371 18.2921 11.6177 18.2183 11.5828C17.3569 11.1705 16.4144 10.9552 15.4594 10.9525C13.7247 10.9525 12.0611 11.6416 10.8345 12.8682C9.60796 14.0948 8.91887 15.7584 8.91887 17.493C8.91887 17.6507 8.85622 17.802 8.74471 17.9135C8.63321 18.025 8.48197 18.0876 8.32427 18.0876C6.66846 18.1239 5.09488 18.8164 3.94969 20.0129C2.8045 21.2094 2.18152 22.8118 2.21779 24.4676C2.25406 26.1234 2.94661 27.697 4.14309 28.8422C5.33957 29.9874 6.94198 30.6104 8.59779 30.5741H13.6994C13.8571 30.5741 14.0083 30.6368 14.1199 30.7483C14.2314 30.8598 14.294 31.011 14.294 31.1687C14.294 31.3264 14.2314 31.4776 14.1199 31.5891C14.0083 31.7006 13.8571 31.7633 13.6994 31.7633H8.62157C6.71989 31.7772 4.88533 31.0611 3.49599 29.7625C2.10666 28.464 1.26843 26.6819 1.15407 24.7836C1.03972 22.8853 1.65795 21.0155 2.88135 19.5595C4.10475 18.1035 5.84008 17.1723 7.72968 16.9579C7.86541 15.002 8.73933 13.1707 10.1745 11.8349C11.6096 10.4991 13.4988 9.75859 15.4594 9.76329C16.392 9.76156 17.317 9.93084 18.1886 10.2628C19.2593 7.98123 21.1436 6.18197 23.4722 5.2178C25.8007 4.25363 28.4054 4.19411 30.7756 5.05091C33.1457 5.9077 35.1103 7.61901 36.2841 9.84925C37.4579 12.0795 37.7562 14.6678 37.1205 17.1065C38.8881 17.5339 40.4377 18.5944 41.476 20.0874C42.5143 21.5804 42.9691 23.4023 42.7545 25.2081C42.5398 27.014 41.6706 28.6784 40.3112 29.8865C38.9519 31.0945 37.1969 31.7622 35.3783 31.7633Z" fill="#09CC6E"/>
<path d="M29.4505 39.5881H14.55C14.1731 39.5881 13.8116 39.4384 13.5451 39.1719C13.2786 38.9054 13.1289 38.5439 13.1289 38.167V28.6535C13.1289 28.2766 13.2786 27.9152 13.5451 27.6486C13.8116 27.3821 14.1731 27.2324 14.55 27.2324H29.4505C29.8274 27.2324 30.1889 27.3821 30.4554 27.6486C30.7219 27.9152 30.8716 28.2766 30.8716 28.6535V38.167C30.8716 38.5439 30.7219 38.9054 30.4554 39.1719C30.1889 39.4384 29.8274 39.5881 29.4505 39.5881ZM14.55 28.4216C14.4885 28.4216 14.4295 28.446 14.386 28.4895C14.3425 28.533 14.3181 28.592 14.3181 28.6535V38.167C14.3181 38.2285 14.3425 38.2875 14.386 38.331C14.4295 38.3745 14.4885 38.3989 14.55 38.3989H29.4505C29.481 38.3989 29.5111 38.3929 29.5393 38.3813C29.5674 38.3696 29.593 38.3525 29.6145 38.331C29.636 38.3095 29.6531 38.2839 29.6648 38.2558C29.6764 38.2276 29.6824 38.1975 29.6824 38.167V28.6535C29.6824 28.6231 29.6764 28.5929 29.6648 28.5648C29.6531 28.5366 29.636 28.5111 29.6145 28.4895C29.593 28.468 29.5674 28.4509 29.5393 28.4393C29.5111 28.4276 29.481 28.4216 29.4505 28.4216H14.55Z" fill="#09CC6E"/>
<path d="M27.4405 28.4217H16.5594C16.4017 28.4217 16.2505 28.359 16.139 28.2475C16.0275 28.136 15.9648 27.9848 15.9648 27.8271V23.32C15.9648 21.7194 16.6007 20.1844 17.7325 19.0526C18.8643 17.9208 20.3994 17.2849 22 17.2849C23.6006 17.2849 25.1357 17.9208 26.2675 19.0526C27.3993 20.1844 28.0351 21.7194 28.0351 23.32V27.8271C28.0351 27.9848 27.9725 28.136 27.861 28.2475C27.7495 28.359 27.5982 28.4217 27.4405 28.4217ZM17.154 27.2325H26.8459V23.32C26.8459 22.0348 26.3354 20.8022 25.4266 19.8934C24.5178 18.9847 23.2852 18.4741 22 18.4741C20.7148 18.4741 19.4822 18.9847 18.5734 19.8934C17.6646 20.8022 17.154 22.0348 17.154 23.32V27.2325ZM22 34.5876C21.6069 34.5876 21.2227 34.471 20.896 34.2525C20.5693 34.034 20.3148 33.7235 20.1646 33.3603C20.0145 32.997 19.9755 32.5974 20.0526 32.212C20.1297 31.8266 20.3195 31.4728 20.5978 31.1953C20.8762 30.9178 21.2306 30.7291 21.6162 30.6532C22.0018 30.5772 22.4013 30.6174 22.7641 30.7686C23.1269 30.9198 23.4366 31.1753 23.6541 31.5027C23.8716 31.83 23.9871 32.2146 23.9859 32.6076C23.9844 33.1333 23.7744 33.6369 23.4022 34.008C23.0299 34.3792 22.5257 34.5876 22 34.5876ZM22 31.8109C21.8424 31.8109 21.6883 31.8576 21.5573 31.9451C21.4263 32.0327 21.3242 32.1571 21.2639 32.3027C21.2036 32.4483 21.1878 32.6085 21.2185 32.7631C21.2493 32.9176 21.3252 33.0596 21.4366 33.171C21.548 33.2824 21.69 33.3583 21.8445 33.3891C21.9991 33.4198 22.1593 33.404 22.3049 33.3437C22.4505 33.2834 22.5749 33.1813 22.6625 33.0503C22.75 32.9192 22.7967 32.7652 22.7967 32.6076C22.7967 32.503 22.7761 32.3994 22.7361 32.3027C22.696 32.206 22.6374 32.1182 22.5634 32.0442C22.4894 31.9702 22.4016 31.9115 22.3049 31.8715C22.2082 31.8315 22.1046 31.8109 22 31.8109Z" fill="#09CC6E"/>
<path d="M21.9999 36.199C21.8422 36.199 21.6909 36.1363 21.5794 36.0248C21.4679 35.9133 21.4053 35.7621 21.4053 35.6044V33.993C21.4053 33.8353 21.4679 33.6841 21.5794 33.5726C21.6909 33.4611 21.8422 33.3984 21.9999 33.3984C22.1576 33.3984 22.3088 33.4611 22.4203 33.5726C22.5318 33.6841 22.5945 33.8353 22.5945 33.993V35.6044C22.5945 35.7621 22.5318 35.9133 22.4203 36.0248C22.3088 36.1363 22.1576 36.199 21.9999 36.199Z" fill="#09CC6E"/>
</svg>
