<svg width="44" height="44" viewBox="0 0 44 44" fill="none" xmlns="http://www.w3.org/2000/svg">
<path d="M37.4504 26.2474C37.8064 26.6035 37.8064 27.1807 37.4504 27.5368L32.3374 32.6498C32.1664 32.8207 31.9345 32.9167 31.6928 32.9167C31.451 32.9167 31.2191 32.8207 31.0481 32.6498L27.9402 29.5419C27.5842 29.1858 27.5842 28.6086 27.9402 28.2525C28.2963 27.8965 28.8735 27.8965 29.2295 28.2525L31.6928 30.7158L36.1612 26.2474C36.5172 25.8915 37.0944 25.8914 37.4504 26.2474ZM41.8971 29.4486C41.8971 34.5225 37.7692 38.6504 32.6953 38.6504C31.7878 38.651 30.8853 38.5169 30.0172 38.2524C26.1694 40.1448 22.2716 41.1 18.4077 41.1C17.8579 41.1 17.3093 41.0807 16.7611 41.042C12.3465 40.7303 7.88717 39.1534 3.5069 36.3549C3.39042 36.2805 3.29239 36.1806 3.22023 36.0627C3.14806 35.9448 3.10364 35.812 3.09033 35.6745C2.71973 31.8475 3.49725 28.1139 5.27982 25.1615C6.97427 22.3549 9.49728 20.3138 12.6319 19.1948C11.4044 17.736 10.5409 16.0256 10.1159 14.1894C9.62842 12.0826 9.76524 9.9178 10.5011 8.09382C11.7858 4.91006 14.6767 3.05349 18.4329 3.00015L18.4458 3L18.4587 3.00015C22.2149 3.05356 25.1058 4.91014 26.3904 8.0939C27.1263 9.9178 27.2631 12.0826 26.7756 14.1894C26.3506 16.0257 25.487 17.7363 24.2592 19.1953C25.737 19.7223 27.0796 20.4545 28.2694 21.3832C29.5833 20.6593 31.0919 20.2468 32.6952 20.2468C37.7692 20.2467 41.8971 24.3746 41.8971 29.4486ZM14.6722 18.7235C15.945 19.9857 17.2146 20.6257 18.4458 20.6257C19.677 20.6257 20.9466 19.9857 22.2193 18.7235C24.9501 16.0153 25.97 11.9248 24.6995 8.77599C23.6898 6.27356 21.4693 4.87017 18.4458 4.82337C15.4223 4.87017 13.2017 6.27356 12.192 8.77599C10.9216 11.9249 11.9414 16.0154 14.6722 18.7235ZM27.8284 37.2544C25.2273 35.6268 23.4934 32.7366 23.4934 29.4486C23.4934 26.6669 24.7343 24.1696 26.6914 22.4808C25.5471 21.6728 24.25 21.058 22.8188 20.6458C21.4019 21.8428 19.9341 22.4492 18.4458 22.4492C16.9575 22.4492 15.4898 21.8428 14.0728 20.6458C7.91665 22.4242 4.34914 28.0038 4.86751 35.0573C12.5806 39.8555 20.1111 40.5786 27.8284 37.2544ZM40.0737 29.4486C40.0737 25.3801 36.7638 22.0701 32.6953 22.0701C28.6268 22.0701 25.3168 25.38 25.3168 29.4486C25.3168 33.5171 28.6268 36.827 32.6953 36.827C36.7639 36.827 40.0737 33.517 40.0737 29.4486Z" fill="#09CC6E"/>
</svg>
