<svg width="44" height="44" viewBox="0 0 44 44" fill="none" xmlns="http://www.w3.org/2000/svg">
<path d="M39.8749 22C39.8749 12.1412 31.8587 4.125 21.9999 4.125C12.1412 4.125 4.50305 11.6806 4.13867 21.3194L5.51367 21.3675C5.84367 12.4644 13.0899 5.49312 21.9999 5.49312C30.9099 5.49312 38.4999 12.8975 38.4999 21.9931C38.4999 29.095 33.8455 35.4131 27.2249 37.6338L27.8437 36.8569L26.7712 35.9975L24.7293 38.555C24.5849 38.7338 24.5437 38.9675 24.6124 39.1875C24.6812 39.4075 24.853 39.5725 25.073 39.6412L27.9949 40.5212L28.3937 39.2081L27.5893 38.9675C34.808 36.5888 39.8818 29.7137 39.8818 21.9931L39.8749 22Z" fill="#09CC6E"/>
<path d="M22.6875 7.5625C22.6875 7.1828 22.3797 6.875 22 6.875C21.6203 6.875 21.3125 7.1828 21.3125 7.5625V8.9375C21.3125 9.3172 21.6203 9.625 22 9.625C22.3797 9.625 22.6875 9.3172 22.6875 8.9375V7.5625Z" fill="#09CC6E"/>
<path d="M36.4375 21.3125H35.0625C34.6828 21.3125 34.375 21.6203 34.375 22C34.375 22.3797 34.6828 22.6875 35.0625 22.6875H36.4375C36.8172 22.6875 37.125 22.3797 37.125 22C37.125 21.6203 36.8172 21.3125 36.4375 21.3125Z" fill="#09CC6E"/>
<path d="M31.7201 11.3104L30.7479 12.2827C30.4794 12.5511 30.4794 12.9864 30.7479 13.2549C31.0163 13.5234 31.4516 13.5234 31.7201 13.2549L32.6924 12.2827C32.9609 12.0142 32.9609 11.5789 32.6924 11.3104C32.4239 11.0419 31.9886 11.0419 31.7201 11.3104Z" fill="#09CC6E"/>
<path d="M31.7152 30.7491C31.4468 30.4806 31.0115 30.4806 30.743 30.7491C30.4745 31.0176 30.4745 31.4529 30.743 31.7214L31.7152 32.6936C31.9837 32.9621 32.419 32.9621 32.6875 32.6936C32.956 32.4252 32.956 31.9899 32.6875 31.7214L31.7152 30.7491Z" fill="#09CC6E"/>
<path d="M12.2748 11.2996C12.0063 11.0311 11.571 11.0311 11.3025 11.2996C11.0341 11.5681 11.0341 12.0034 11.3025 12.2719L12.2748 13.2442C12.5433 13.5127 12.9786 13.5127 13.2471 13.2442C13.5156 12.9757 13.5156 12.5404 13.2471 12.2719L12.2748 11.2996Z" fill="#09CC6E"/>
<path d="M22.8049 23.8975L25.1561 26.7231C25.3968 27.0119 25.8299 27.0531 26.1255 26.8125C26.4143 26.5719 26.4555 26.1388 26.2149 25.8431L23.8155 22.9625C23.9668 22.6738 24.063 22.3506 24.063 22C24.063 21.1063 23.4855 20.35 22.688 20.0613V12.375C22.688 11.9969 22.3786 11.6875 22.0005 11.6875C21.6224 11.6875 21.313 11.9969 21.313 12.375V20.0613C20.3918 20.3913 19.7661 21.34 19.9793 22.4125C20.0608 22.8033 20.2533 23.1624 20.5338 23.4465C20.8143 23.7306 21.1708 23.9278 21.5605 24.0144C22.0005 24.1038 22.4268 24.0556 22.798 23.8975H22.8049ZM21.313 22C21.313 21.6219 21.6224 21.3125 22.0005 21.3125C22.3786 21.3125 22.688 21.6219 22.688 22C22.688 22.3781 22.3786 22.6875 22.0005 22.6875C21.6224 22.6875 21.313 22.3781 21.313 22ZM7.62489 27.7887C7.73489 28.0294 7.98239 28.1875 8.25052 28.1875H11.0005V28.875C11.0005 29.2531 11.3099 29.5625 11.688 29.5625C12.0661 29.5625 12.3755 29.2531 12.3755 28.875V28.1875H13.063C13.4411 28.1875 13.7505 27.8781 13.7505 27.5C13.7505 27.1219 13.4411 26.8125 13.063 26.8125H12.3755V23.375C12.3755 23.0863 12.1968 22.825 11.9218 22.7288C11.6468 22.6325 11.3443 22.715 11.1586 22.935L7.72114 27.06C7.63778 27.1599 7.58448 27.2814 7.56744 27.4104C7.5504 27.5394 7.57033 27.6706 7.62489 27.7887ZM11.0005 25.2725V26.8125H9.72177L11.0005 25.2725ZM17.8755 40.5625C18.2399 40.6725 18.6249 40.4663 18.7349 40.1019L20.598 33.8869C20.6599 33.6806 20.6186 33.4537 20.488 33.2819C20.3574 33.11 20.1511 33.0069 19.938 33.0069H15.1255C14.8711 33.0069 14.6374 33.1444 14.5205 33.3713C14.4036 33.5981 14.4174 33.8662 14.5549 34.0794L15.5518 35.5713C15.7649 35.8875 16.1911 35.97 16.5074 35.7638C16.8236 35.5506 16.9061 35.1244 16.6999 34.8081L16.418 34.3888H19.0236L17.4218 39.7169C17.3118 40.0813 17.518 40.4663 17.8824 40.5763L17.8755 40.5625Z" fill="#09CC6E"/>
<path d="M17.5926 27.352L5.6384 36.1622C5.33274 36.3875 5.26757 36.8178 5.49284 37.1235C5.71811 37.4292 6.1485 37.4943 6.45415 37.2691L18.4084 28.4589C18.714 28.2336 18.7792 27.8032 18.5539 27.4976C18.3287 27.1919 17.8983 27.1267 17.5926 27.352Z" fill="#09CC6E"/>
<path d="M6.87507 28.875C6.87507 29.2532 6.56569 29.5625 6.18757 29.5625H2.75007C2.6144 29.5613 2.4821 29.5201 2.36979 29.4439C2.25747 29.3678 2.17013 29.2602 2.11873 29.1347C2.06733 29.0091 2.05415 28.8712 2.08085 28.7381C2.10756 28.6051 2.17294 28.4829 2.26882 28.3869L5.46569 25.19C5.46569 25.19 5.50694 25.1282 5.50694 25.0938C5.50694 24.5232 5.04632 24.0557 4.47569 24.0557C4.04944 24.0557 3.67819 24.3169 3.52007 24.695C3.41694 24.9425 3.16257 25.0869 2.90132 25.0869C2.42694 25.0869 2.06944 24.6057 2.24819 24.1725C2.4309 23.7319 2.73988 23.3551 3.13625 23.0896C3.53261 22.8241 3.99865 22.6819 4.47569 22.6807C5.78882 22.6807 6.86132 23.7394 6.88194 25.0525C6.88194 25.4788 6.71007 25.8844 6.41444 26.1869L4.42069 28.1807H6.20132C6.57945 28.1807 6.88882 28.49 6.88882 28.8682L6.87507 28.875Z" fill="#09CC6E"/>
</svg>
